<svg width="36" height="36" viewBox="0 0 36 36" fill="none" xmlns="http://www.w3.org/2000/svg">
<path fill-rule="evenodd" clip-rule="evenodd" d="M33 18C33 26.2843 26.2843 33 18 33C9.71573 33 3 26.2843 3 18C3 9.71573 9.71573 3 18 3C26.2843 3 33 9.71573 33 18ZM27 23.3571C27 25.8424 22.9706 28.5 18 28.5C13.0294 28.5 9 25.8424 9 23.3571C9 20.8719 13.0294 19.5 18 19.5C22.9706 19.5 27 20.8719 27 23.3571ZM18 16.5C20.4853 16.5 22.5 14.4853 22.5 12C22.5 9.51472 20.4853 7.5 18 7.5C15.5147 7.5 13.5 9.51472 13.5 12C13.5 14.4853 15.5147 16.5 18 16.5Z" fill="#D9D9D9"/>
</svg>
