<svg width="1160" height="146" viewBox="0 0 1160 146" fill="none" xmlns="http://www.w3.org/2000/svg">
<rect width="1160" height="146" rx="28" fill="#BCEC30"/>
<path d="M42.4637 34.3675C42.6202 33.7044 42.6984 33.3729 42.8242 33.2982C42.9326 33.2339 43.0674 33.2339 43.1758 33.2982C43.3016 33.3729 43.3798 33.7044 43.5363 34.3675L44.2997 37.603C44.5837 38.8064 44.7257 39.408 45.0343 39.896C45.3071 40.3274 45.6726 40.6929 46.104 40.9657C46.592 41.2743 47.1936 41.4163 48.397 41.7003L51.6325 42.4637C52.2956 42.6202 52.6271 42.6984 52.7018 42.8242C52.7661 42.9326 52.7661 43.0674 52.7018 43.1758C52.6271 43.3016 52.2956 43.3798 51.6325 43.5363L48.397 44.2997C47.1936 44.5837 46.592 44.7257 46.104 45.0343C45.6726 45.3071 45.3071 45.6726 45.0343 46.104C44.7257 46.592 44.5837 47.1936 44.2997 48.397L43.5363 51.6325C43.3798 52.2956 43.3016 52.6271 43.1758 52.7018C43.0674 52.7661 42.9326 52.7661 42.8242 52.7018C42.6984 52.6271 42.6202 52.2956 42.4637 51.6325L41.7003 48.397C41.4163 47.1936 41.2743 46.592 40.9657 46.104C40.6929 45.6726 40.3274 45.3071 39.896 45.0343C39.408 44.7257 38.8064 44.5837 37.603 44.2997L34.3675 43.5363C33.7044 43.3798 33.3729 43.3016 33.2982 43.1758C33.2339 43.0674 33.2339 42.9326 33.2982 42.8242C33.3729 42.6984 33.7044 42.6202 34.3675 42.4637L37.603 41.7003C38.8064 41.4163 39.408 41.2743 39.896 40.9657C40.3274 40.6929 40.6929 40.3274 40.9657 39.896C41.2743 39.408 41.4163 38.8064 41.7003 37.603L42.4637 34.3675Z" fill="black"/>
<path d="M68.3359 47.0859L76.7383 33.9375H79V51H76.7383V37.8398L68.3359 51H66.0859V33.9375H68.3359V47.0859ZM74.3359 29.707H76.0938C76.0938 30.3164 75.9531 30.8594 75.6719 31.3359C75.3906 31.8047 74.9883 32.1719 74.4648 32.4375C73.9414 32.7031 73.3203 32.8359 72.6016 32.8359C71.5156 32.8359 70.6562 32.5469 70.0234 31.9688C69.3984 31.3828 69.0859 30.6289 69.0859 29.707H70.8438C70.8438 30.168 70.9766 30.5742 71.2422 30.9258C71.5078 31.2773 71.9609 31.4531 72.6016 31.4531C73.2266 31.4531 73.6719 31.2773 73.9375 30.9258C74.2031 30.5742 74.3359 30.168 74.3359 29.707ZM82.2109 44.8008V44.5312C82.2109 43.6172 82.3438 42.7695 82.6094 41.9883C82.875 41.1992 83.2578 40.5156 83.7578 39.9375C84.2578 39.3516 84.8633 38.8984 85.5742 38.5781C86.2852 38.25 87.082 38.0859 87.9648 38.0859C88.8555 38.0859 89.6562 38.25 90.3672 38.5781C91.0859 38.8984 91.6953 39.3516 92.1953 39.9375C92.7031 40.5156 93.0898 41.1992 93.3555 41.9883C93.6211 42.7695 93.7539 43.6172 93.7539 44.5312V44.8008C93.7539 45.7148 93.6211 46.5625 93.3555 47.3438C93.0898 48.125 92.7031 48.8086 92.1953 49.3945C91.6953 49.9727 91.0898 50.4258 90.3789 50.7539C89.6758 51.0742 88.8789 51.2344 87.9883 51.2344C87.0977 51.2344 86.2969 51.0742 85.5859 50.7539C84.875 50.4258 84.2656 49.9727 83.7578 49.3945C83.2578 48.8086 82.875 48.125 82.6094 47.3438C82.3438 46.5625 82.2109 45.7148 82.2109 44.8008ZM84.3789 44.5312V44.8008C84.3789 45.4336 84.4531 46.0312 84.6016 46.5938C84.75 47.1484 84.9727 47.6406 85.2695 48.0703C85.5742 48.5 85.9531 48.8398 86.4062 49.0898C86.8594 49.332 87.3867 49.4531 87.9883 49.4531C88.582 49.4531 89.1016 49.332 89.5469 49.0898C90 48.8398 90.375 48.5 90.6719 48.0703C90.9688 47.6406 91.1914 47.1484 91.3398 46.5938C91.4961 46.0312 91.5742 45.4336 91.5742 44.8008V44.5312C91.5742 43.9062 91.4961 43.3164 91.3398 42.7617C91.1914 42.1992 90.9648 41.7031 90.6602 41.2734C90.3633 40.8359 89.9883 40.4922 89.5352 40.2422C89.0898 39.9922 88.5664 39.8672 87.9648 39.8672C87.3711 39.8672 86.8477 39.9922 86.3945 40.2422C85.9492 40.4922 85.5742 40.8359 85.2695 41.2734C84.9727 41.7031 84.75 42.1992 84.6016 42.7617C84.4531 43.3164 84.3789 43.9062 84.3789 44.5312ZM104.664 38.3203V40.1133H98.8047V51H96.6367V38.3203H104.664ZM114.027 48.832V42.3047C114.027 41.8047 113.926 41.3711 113.723 41.0039C113.527 40.6289 113.23 40.3398 112.832 40.1367C112.434 39.9336 111.941 39.832 111.355 39.832C110.809 39.832 110.328 39.9258 109.914 40.1133C109.508 40.3008 109.188 40.5469 108.953 40.8516C108.727 41.1562 108.613 41.4844 108.613 41.8359H106.445C106.445 41.3828 106.562 40.9336 106.797 40.4883C107.031 40.043 107.367 39.6406 107.805 39.2812C108.25 38.9141 108.781 38.625 109.398 38.4141C110.023 38.1953 110.719 38.0859 111.484 38.0859C112.406 38.0859 113.219 38.2422 113.922 38.5547C114.633 38.8672 115.188 39.3398 115.586 39.9727C115.992 40.5977 116.195 41.3828 116.195 42.3281V48.2344C116.195 48.6562 116.23 49.1055 116.301 49.582C116.379 50.0586 116.492 50.4688 116.641 50.8125V51H114.379C114.27 50.75 114.184 50.418 114.121 50.0039C114.059 49.582 114.027 49.1914 114.027 48.832ZM114.402 43.3125L114.426 44.8359H112.234C111.617 44.8359 111.066 44.8867 110.582 44.9883C110.098 45.082 109.691 45.2266 109.363 45.4219C109.035 45.6172 108.785 45.8633 108.613 46.1602C108.441 46.4492 108.355 46.7891 108.355 47.1797C108.355 47.5781 108.445 47.9414 108.625 48.2695C108.805 48.5977 109.074 48.8594 109.434 49.0547C109.801 49.2422 110.25 49.3359 110.781 49.3359C111.445 49.3359 112.031 49.1953 112.539 48.9141C113.047 48.6328 113.449 48.2891 113.746 47.8828C114.051 47.4766 114.215 47.082 114.238 46.6992L115.164 47.7422C115.109 48.0703 114.961 48.4336 114.719 48.832C114.477 49.2305 114.152 49.6133 113.746 49.9805C113.348 50.3398 112.871 50.6406 112.316 50.8828C111.77 51.1172 111.152 51.2344 110.465 51.2344C109.605 51.2344 108.852 51.0664 108.203 50.7305C107.562 50.3945 107.062 49.9453 106.703 49.3828C106.352 48.8125 106.176 48.1758 106.176 47.4727C106.176 46.793 106.309 46.1953 106.574 45.6797C106.84 45.1562 107.223 44.7227 107.723 44.3789C108.223 44.0273 108.824 43.7617 109.527 43.582C110.23 43.4023 111.016 43.3125 111.883 43.3125H114.402ZM127.844 38.3203H130.012L129.824 43.0664C129.777 44.2695 129.641 45.3086 129.414 46.1836C129.188 47.0586 128.898 47.8047 128.547 48.4219C128.195 49.0312 127.801 49.543 127.363 49.957C126.934 50.3711 126.488 50.7188 126.027 51H124.949L125.008 49.2305L125.453 49.2188C125.711 48.9141 125.961 48.6016 126.203 48.2812C126.445 47.9531 126.668 47.5664 126.871 47.1211C127.074 46.668 127.242 46.1172 127.375 45.4688C127.516 44.8125 127.605 44.0117 127.645 43.0664L127.844 38.3203ZM128.383 38.3203H136.012V51H133.844V40.3242H128.383V38.3203ZM124.457 49.2188H137.641V54.7383H135.473V51H126.625V54.7383H124.445L124.457 49.2188ZM148.516 38.3203V40.1133H142.387V38.3203H148.516ZM150.426 38.3203V51H148.258V38.3203H150.426ZM141.859 38.3203H144.039L143.711 44.4375C143.656 45.3828 143.566 46.2188 143.441 46.9453C143.324 47.6641 143.16 48.2812 142.949 48.7969C142.746 49.3125 142.488 49.7344 142.176 50.0625C141.871 50.3828 141.504 50.6211 141.074 50.7773C140.645 50.9258 140.148 51 139.586 51H138.906V49.0898L139.375 49.0547C139.711 49.0312 139.996 48.9531 140.23 48.8203C140.473 48.6875 140.676 48.4922 140.84 48.2344C141.004 47.9688 141.137 47.6289 141.238 47.2148C141.348 46.8008 141.43 46.3086 141.484 45.7383C141.547 45.168 141.594 44.5039 141.625 43.7461L141.859 38.3203ZM156.484 44.9531H158.828L155.16 51H152.816L156.484 44.9531ZM158.301 38.3203H163.598V51H161.43V40.0781H158.301C157.684 40.0781 157.18 40.1836 156.789 40.3945C156.398 40.5977 156.113 40.8633 155.934 41.1914C155.754 41.5195 155.664 41.8594 155.664 42.2109C155.664 42.5547 155.746 42.8867 155.91 43.207C156.074 43.5195 156.332 43.7773 156.684 43.9805C157.035 44.1836 157.488 44.2852 158.043 44.2852H162.016V46.0664H158.043C157.316 46.0664 156.672 45.9688 156.109 45.7734C155.547 45.5781 155.07 45.3086 154.68 44.9648C154.289 44.6133 153.992 44.2031 153.789 43.7344C153.586 43.2578 153.484 42.7422 153.484 42.1875C153.484 41.6328 153.59 41.1211 153.801 40.6523C154.02 40.1836 154.332 39.7734 154.738 39.4219C155.152 39.0703 155.656 38.8008 156.25 38.6133C156.852 38.418 157.535 38.3203 158.301 38.3203ZM181.645 43.8164V45.5742H174.941V43.8164H181.645ZM175.398 38.3203V51H173.23V38.3203H175.398ZM183.402 38.3203V51H181.223V38.3203H183.402ZM186.32 44.8008V44.5312C186.32 43.6172 186.453 42.7695 186.719 41.9883C186.984 41.1992 187.367 40.5156 187.867 39.9375C188.367 39.3516 188.973 38.8984 189.684 38.5781C190.395 38.25 191.191 38.0859 192.074 38.0859C192.965 38.0859 193.766 38.25 194.477 38.5781C195.195 38.8984 195.805 39.3516 196.305 39.9375C196.812 40.5156 197.199 41.1992 197.465 41.9883C197.73 42.7695 197.863 43.6172 197.863 44.5312V44.8008C197.863 45.7148 197.73 46.5625 197.465 47.3438C197.199 48.125 196.812 48.8086 196.305 49.3945C195.805 49.9727 195.199 50.4258 194.488 50.7539C193.785 51.0742 192.988 51.2344 192.098 51.2344C191.207 51.2344 190.406 51.0742 189.695 50.7539C188.984 50.4258 188.375 49.9727 187.867 49.3945C187.367 48.8086 186.984 48.125 186.719 47.3438C186.453 46.5625 186.32 45.7148 186.32 44.8008ZM188.488 44.5312V44.8008C188.488 45.4336 188.562 46.0312 188.711 46.5938C188.859 47.1484 189.082 47.6406 189.379 48.0703C189.684 48.5 190.062 48.8398 190.516 49.0898C190.969 49.332 191.496 49.4531 192.098 49.4531C192.691 49.4531 193.211 49.332 193.656 49.0898C194.109 48.8398 194.484 48.5 194.781 48.0703C195.078 47.6406 195.301 47.1484 195.449 46.5938C195.605 46.0312 195.684 45.4336 195.684 44.8008V44.5312C195.684 43.9062 195.605 43.3164 195.449 42.7617C195.301 42.1992 195.074 41.7031 194.77 41.2734C194.473 40.8359 194.098 40.4922 193.645 40.2422C193.199 39.9922 192.676 39.8672 192.074 39.8672C191.48 39.8672 190.957 39.9922 190.504 40.2422C190.059 40.4922 189.684 40.8359 189.379 41.2734C189.082 41.7031 188.859 42.1992 188.711 42.7617C188.562 43.3164 188.488 43.9062 188.488 44.5312ZM206.535 45.4219H202.375L202.352 43.6875H205.75C206.422 43.6875 206.98 43.6211 207.426 43.4883C207.879 43.3555 208.219 43.1562 208.445 42.8906C208.672 42.625 208.785 42.2969 208.785 41.9062C208.785 41.6016 208.719 41.3359 208.586 41.1094C208.461 40.875 208.27 40.6836 208.012 40.5352C207.754 40.3789 207.434 40.2656 207.051 40.1953C206.676 40.1172 206.234 40.0781 205.727 40.0781H202.949V51H200.781V38.3203H205.727C206.531 38.3203 207.254 38.3906 207.895 38.5312C208.543 38.6719 209.094 38.8867 209.547 39.1758C210.008 39.457 210.359 39.8164 210.602 40.2539C210.844 40.6914 210.965 41.207 210.965 41.8008C210.965 42.1836 210.887 42.5469 210.73 42.8906C210.574 43.2344 210.344 43.5391 210.039 43.8047C209.734 44.0703 209.359 44.2891 208.914 44.4609C208.469 44.625 207.957 44.7305 207.379 44.7773L206.535 45.4219ZM206.535 51H201.59L202.668 49.2422H206.535C207.137 49.2422 207.637 49.168 208.035 49.0195C208.434 48.8633 208.73 48.6445 208.926 48.3633C209.129 48.0742 209.23 47.7305 209.23 47.332C209.23 46.9336 209.129 46.5938 208.926 46.3125C208.73 46.0234 208.434 45.8047 208.035 45.6562C207.637 45.5 207.137 45.4219 206.535 45.4219H203.242L203.266 43.6875H207.379L208.164 44.3438C208.859 44.3984 209.449 44.5703 209.934 44.8594C210.418 45.1484 210.785 45.5156 211.035 45.9609C211.285 46.3984 211.41 46.875 211.41 47.3906C211.41 47.9844 211.297 48.5078 211.07 48.9609C210.852 49.4141 210.531 49.793 210.109 50.0977C209.688 50.3945 209.176 50.6211 208.574 50.7773C207.973 50.9258 207.293 51 206.535 51ZM216.66 47.5664L222.508 38.3203H224.688V51H222.508V41.7539L216.66 51H214.504V38.3203H216.66V47.5664ZM237.73 38.3203V51H235.562V38.3203H237.73ZM236.992 44.1445V45.9258C236.555 46.0898 236.109 46.2383 235.656 46.3711C235.211 46.4961 234.738 46.5977 234.238 46.6758C233.746 46.7461 233.211 46.7812 232.633 46.7812C231.633 46.7812 230.766 46.6094 230.031 46.2656C229.297 45.9141 228.73 45.3867 228.332 44.6836C227.934 43.9727 227.734 43.0781 227.734 42V38.2969H229.902V42C229.902 42.7031 230.008 43.2734 230.219 43.7109C230.43 44.1484 230.738 44.4727 231.145 44.6836C231.551 44.8867 232.047 44.9883 232.633 44.9883C233.195 44.9883 233.723 44.9531 234.215 44.8828C234.715 44.8047 235.191 44.7031 235.645 44.5781C236.105 44.4531 236.555 44.3086 236.992 44.1445ZM243.578 38.3203V51H241.41V38.3203H243.578ZM251.898 38.3203L245.887 45.5859H242.852L242.523 43.6875H245.008L249.262 38.3203H251.898ZM249.566 51L244.902 45.2578L246.297 43.6875L252.32 51H249.566ZM253.375 44.8008V44.5312C253.375 43.6172 253.508 42.7695 253.773 41.9883C254.039 41.1992 254.422 40.5156 254.922 39.9375C255.422 39.3516 256.027 38.8984 256.738 38.5781C257.449 38.25 258.246 38.0859 259.129 38.0859C260.02 38.0859 260.82 38.25 261.531 38.5781C262.25 38.8984 262.859 39.3516 263.359 39.9375C263.867 40.5156 264.254 41.1992 264.52 41.9883C264.785 42.7695 264.918 43.6172 264.918 44.5312V44.8008C264.918 45.7148 264.785 46.5625 264.52 47.3438C264.254 48.125 263.867 48.8086 263.359 49.3945C262.859 49.9727 262.254 50.4258 261.543 50.7539C260.84 51.0742 260.043 51.2344 259.152 51.2344C258.262 51.2344 257.461 51.0742 256.75 50.7539C256.039 50.4258 255.43 49.9727 254.922 49.3945C254.422 48.8086 254.039 48.125 253.773 47.3438C253.508 46.5625 253.375 45.7148 253.375 44.8008ZM255.543 44.5312V44.8008C255.543 45.4336 255.617 46.0312 255.766 46.5938C255.914 47.1484 256.137 47.6406 256.434 48.0703C256.738 48.5 257.117 48.8398 257.57 49.0898C258.023 49.332 258.551 49.4531 259.152 49.4531C259.746 49.4531 260.266 49.332 260.711 49.0898C261.164 48.8398 261.539 48.5 261.836 48.0703C262.133 47.6406 262.355 47.1484 262.504 46.5938C262.66 46.0312 262.738 45.4336 262.738 44.8008V44.5312C262.738 43.9062 262.66 43.3164 262.504 42.7617C262.355 42.1992 262.129 41.7031 261.824 41.2734C261.527 40.8359 261.152 40.4922 260.699 40.2422C260.254 39.9922 259.73 39.8672 259.129 39.8672C258.535 39.8672 258.012 39.9922 257.559 40.2422C257.113 40.4922 256.738 40.8359 256.434 41.2734C256.137 41.7031 255.914 42.1992 255.766 42.7617C255.617 43.3164 255.543 43.9062 255.543 44.5312ZM273.59 45.4219H269.43L269.406 43.6875H272.805C273.477 43.6875 274.035 43.6211 274.48 43.4883C274.934 43.3555 275.273 43.1562 275.5 42.8906C275.727 42.625 275.84 42.2969 275.84 41.9062C275.84 41.6016 275.773 41.3359 275.641 41.1094C275.516 40.875 275.324 40.6836 275.066 40.5352C274.809 40.3789 274.488 40.2656 274.105 40.1953C273.73 40.1172 273.289 40.0781 272.781 40.0781H270.004V51H267.836V38.3203H272.781C273.586 38.3203 274.309 38.3906 274.949 38.5312C275.598 38.6719 276.148 38.8867 276.602 39.1758C277.062 39.457 277.414 39.8164 277.656 40.2539C277.898 40.6914 278.02 41.207 278.02 41.8008C278.02 42.1836 277.941 42.5469 277.785 42.8906C277.629 43.2344 277.398 43.5391 277.094 43.8047C276.789 44.0703 276.414 44.2891 275.969 44.4609C275.523 44.625 275.012 44.7305 274.434 44.7773L273.59 45.4219ZM273.59 51H268.645L269.723 49.2422H273.59C274.191 49.2422 274.691 49.168 275.09 49.0195C275.488 48.8633 275.785 48.6445 275.98 48.3633C276.184 48.0742 276.285 47.7305 276.285 47.332C276.285 46.9336 276.184 46.5938 275.98 46.3125C275.785 46.0234 275.488 45.8047 275.09 45.6562C274.691 45.5 274.191 45.4219 273.59 45.4219H270.297L270.32 43.6875H274.434L275.219 44.3438C275.914 44.3984 276.504 44.5703 276.988 44.8594C277.473 45.1484 277.84 45.5156 278.09 45.9609C278.34 46.3984 278.465 46.875 278.465 47.3906C278.465 47.9844 278.352 48.5078 278.125 48.9609C277.906 49.4141 277.586 49.793 277.164 50.0977C276.742 50.3945 276.23 50.6211 275.629 50.7773C275.027 50.9258 274.348 51 273.59 51Z" fill="black"/>
<path d="M42.4637 94.3675C42.6202 93.7044 42.6984 93.3729 42.8242 93.2982C42.9326 93.2339 43.0674 93.2339 43.1758 93.2982C43.3016 93.3729 43.3798 93.7044 43.5363 94.3675L44.2997 97.603C44.5837 98.8064 44.7257 99.408 45.0343 99.896C45.3071 100.327 45.6726 100.693 46.104 100.966C46.592 101.274 47.1936 101.416 48.397 101.7L51.6325 102.464C52.2956 102.62 52.6271 102.698 52.7018 102.824C52.7661 102.933 52.7661 103.067 52.7018 103.176C52.6271 103.302 52.2956 103.38 51.6325 103.536L48.397 104.3C47.1936 104.584 46.592 104.726 46.104 105.034C45.6726 105.307 45.3071 105.673 45.0343 106.104C44.7257 106.592 44.5837 107.194 44.2997 108.397L43.5363 111.632C43.3798 112.296 43.3016 112.627 43.1758 112.702C43.0674 112.766 42.9326 112.766 42.8242 112.702C42.6984 112.627 42.6202 112.296 42.4637 111.632L41.7003 108.397C41.4163 107.194 41.2743 106.592 40.9657 106.104C40.6929 105.673 40.3274 105.307 39.896 105.034C39.408 104.726 38.8064 104.584 37.603 104.3L34.3675 103.536C33.7044 103.38 33.3729 103.302 33.2982 103.176C33.2339 103.067 33.2339 102.933 33.2982 102.824C33.3729 102.698 33.7044 102.62 34.3675 102.464L37.603 101.7C38.8064 101.416 39.408 101.274 39.896 100.966C40.3274 100.693 40.6929 100.327 40.9657 99.896C41.2743 99.408 41.4163 98.8064 41.7003 97.603L42.4637 94.3675Z" fill="black"/>
<path d="M68.3477 93.9375V111H66.0859V93.9375H68.3477ZM78.8594 93.9375L71.4531 103.324H67.4453L67.0938 101.449H70.1055L76.0586 93.9375H78.8594ZM76.5859 111L70.1758 103.031L71.4414 101.051L79.3516 111H76.5859ZM89.5469 98.3203V100.113H83.418V98.3203H89.5469ZM91.457 98.3203V111H89.2891V98.3203H91.457ZM82.8906 98.3203H85.0703L84.7422 104.438C84.6875 105.383 84.5977 106.219 84.4727 106.945C84.3555 107.664 84.1914 108.281 83.9805 108.797C83.7773 109.312 83.5195 109.734 83.207 110.062C82.9023 110.383 82.5352 110.621 82.1055 110.777C81.6758 110.926 81.1797 111 80.6172 111H79.9375V109.09L80.4062 109.055C80.7422 109.031 81.0273 108.953 81.2617 108.82C81.5039 108.688 81.707 108.492 81.8711 108.234C82.0352 107.969 82.168 107.629 82.2695 107.215C82.3789 106.801 82.4609 106.309 82.5156 105.738C82.5781 105.168 82.625 104.504 82.6562 103.746L82.8906 98.3203ZM102.426 108.832V102.305C102.426 101.805 102.324 101.371 102.121 101.004C101.926 100.629 101.629 100.34 101.23 100.137C100.832 99.9336 100.34 99.832 99.7539 99.832C99.207 99.832 98.7266 99.9258 98.3125 100.113C97.9062 100.301 97.5859 100.547 97.3516 100.852C97.125 101.156 97.0117 101.484 97.0117 101.836H94.8438C94.8438 101.383 94.9609 100.934 95.1953 100.488C95.4297 100.043 95.7656 99.6406 96.2031 99.2812C96.6484 98.9141 97.1797 98.625 97.7969 98.4141C98.4219 98.1953 99.1172 98.0859 99.8828 98.0859C100.805 98.0859 101.617 98.2422 102.32 98.5547C103.031 98.8672 103.586 99.3398 103.984 99.9727C104.391 100.598 104.594 101.383 104.594 102.328V108.234C104.594 108.656 104.629 109.105 104.699 109.582C104.777 110.059 104.891 110.469 105.039 110.812V111H102.777C102.668 110.75 102.582 110.418 102.52 110.004C102.457 109.582 102.426 109.191 102.426 108.832ZM102.801 103.312L102.824 104.836H100.633C100.016 104.836 99.4648 104.887 98.9805 104.988C98.4961 105.082 98.0898 105.227 97.7617 105.422C97.4336 105.617 97.1836 105.863 97.0117 106.16C96.8398 106.449 96.7539 106.789 96.7539 107.18C96.7539 107.578 96.8438 107.941 97.0234 108.27C97.2031 108.598 97.4727 108.859 97.832 109.055C98.1992 109.242 98.6484 109.336 99.1797 109.336C99.8438 109.336 100.43 109.195 100.938 108.914C101.445 108.633 101.848 108.289 102.145 107.883C102.449 107.477 102.613 107.082 102.637 106.699L103.562 107.742C103.508 108.07 103.359 108.434 103.117 108.832C102.875 109.23 102.551 109.613 102.145 109.98C101.746 110.34 101.27 110.641 100.715 110.883C100.168 111.117 99.5508 111.234 98.8633 111.234C98.0039 111.234 97.25 111.066 96.6016 110.73C95.9609 110.395 95.4609 109.945 95.1016 109.383C94.75 108.812 94.5742 108.176 94.5742 107.473C94.5742 106.793 94.707 106.195 94.9727 105.68C95.2383 105.156 95.6211 104.723 96.1211 104.379C96.6211 104.027 97.2227 103.762 97.9258 103.582C98.6289 103.402 99.4141 103.312 100.281 103.312H102.801ZM113.078 109.453C113.594 109.453 114.07 109.348 114.508 109.137C114.945 108.926 115.305 108.637 115.586 108.27C115.867 107.895 116.027 107.469 116.066 106.992H118.129C118.09 107.742 117.836 108.441 117.367 109.09C116.906 109.73 116.301 110.25 115.551 110.648C114.801 111.039 113.977 111.234 113.078 111.234C112.125 111.234 111.293 111.066 110.582 110.73C109.879 110.395 109.293 109.934 108.824 109.348C108.363 108.762 108.016 108.09 107.781 107.332C107.555 106.566 107.441 105.758 107.441 104.906V104.414C107.441 103.562 107.555 102.758 107.781 102C108.016 101.234 108.363 100.559 108.824 99.9727C109.293 99.3867 109.879 98.9258 110.582 98.5898C111.293 98.2539 112.125 98.0859 113.078 98.0859C114.07 98.0859 114.938 98.2891 115.68 98.6953C116.422 99.0938 117.004 99.6406 117.426 100.336C117.855 101.023 118.09 101.805 118.129 102.68H116.066C116.027 102.156 115.879 101.684 115.621 101.262C115.371 100.84 115.027 100.504 114.59 100.254C114.16 99.9961 113.656 99.8672 113.078 99.8672C112.414 99.8672 111.855 100 111.402 100.266C110.957 100.523 110.602 100.875 110.336 101.32C110.078 101.758 109.891 102.246 109.773 102.785C109.664 103.316 109.609 103.859 109.609 104.414V104.906C109.609 105.461 109.664 106.008 109.773 106.547C109.883 107.086 110.066 107.574 110.324 108.012C110.59 108.449 110.945 108.801 111.391 109.066C111.844 109.324 112.406 109.453 113.078 109.453ZM125.641 109.453C126.156 109.453 126.633 109.348 127.07 109.137C127.508 108.926 127.867 108.637 128.148 108.27C128.43 107.895 128.59 107.469 128.629 106.992H130.691C130.652 107.742 130.398 108.441 129.93 109.09C129.469 109.73 128.863 110.25 128.113 110.648C127.363 111.039 126.539 111.234 125.641 111.234C124.688 111.234 123.855 111.066 123.145 110.73C122.441 110.395 121.855 109.934 121.387 109.348C120.926 108.762 120.578 108.09 120.344 107.332C120.117 106.566 120.004 105.758 120.004 104.906V104.414C120.004 103.562 120.117 102.758 120.344 102C120.578 101.234 120.926 100.559 121.387 99.9727C121.855 99.3867 122.441 98.9258 123.145 98.5898C123.855 98.2539 124.688 98.0859 125.641 98.0859C126.633 98.0859 127.5 98.2891 128.242 98.6953C128.984 99.0938 129.566 99.6406 129.988 100.336C130.418 101.023 130.652 101.805 130.691 102.68H128.629C128.59 102.156 128.441 101.684 128.184 101.262C127.934 100.84 127.59 100.504 127.152 100.254C126.723 99.9961 126.219 99.8672 125.641 99.8672C124.977 99.8672 124.418 100 123.965 100.266C123.52 100.523 123.164 100.875 122.898 101.32C122.641 101.758 122.453 102.246 122.336 102.785C122.227 103.316 122.172 103.859 122.172 104.414V104.906C122.172 105.461 122.227 106.008 122.336 106.547C122.445 107.086 122.629 107.574 122.887 108.012C123.152 108.449 123.508 108.801 123.953 109.066C124.406 109.324 124.969 109.453 125.641 109.453ZM135.473 107.566L141.32 98.3203H143.5V111H141.32V101.754L135.473 111H133.316V98.3203H135.473V107.566ZM156.543 98.3203V111H154.375V98.3203H156.543ZM155.805 104.145V105.926C155.367 106.09 154.922 106.238 154.469 106.371C154.023 106.496 153.551 106.598 153.051 106.676C152.559 106.746 152.023 106.781 151.445 106.781C150.445 106.781 149.578 106.609 148.844 106.266C148.109 105.914 147.543 105.387 147.145 104.684C146.746 103.973 146.547 103.078 146.547 102V98.2969H148.715V102C148.715 102.703 148.82 103.273 149.031 103.711C149.242 104.148 149.551 104.473 149.957 104.684C150.363 104.887 150.859 104.988 151.445 104.988C152.008 104.988 152.535 104.953 153.027 104.883C153.527 104.805 154.004 104.703 154.457 104.578C154.918 104.453 155.367 104.309 155.805 104.145ZM165.297 111.234C164.414 111.234 163.613 111.086 162.895 110.789C162.184 110.484 161.57 110.059 161.055 109.512C160.547 108.965 160.156 108.316 159.883 107.566C159.609 106.816 159.473 105.996 159.473 105.105V104.613C159.473 103.582 159.625 102.664 159.93 101.859C160.234 101.047 160.648 100.359 161.172 99.7969C161.695 99.2344 162.289 98.8086 162.953 98.5195C163.617 98.2305 164.305 98.0859 165.016 98.0859C165.922 98.0859 166.703 98.2422 167.359 98.5547C168.023 98.8672 168.566 99.3047 168.988 99.8672C169.41 100.422 169.723 101.078 169.926 101.836C170.129 102.586 170.23 103.406 170.23 104.297V105.27H160.762V103.5H168.062V103.336C168.031 102.773 167.914 102.227 167.711 101.695C167.516 101.164 167.203 100.727 166.773 100.383C166.344 100.039 165.758 99.8672 165.016 99.8672C164.523 99.8672 164.07 99.9727 163.656 100.184C163.242 100.387 162.887 100.691 162.59 101.098C162.293 101.504 162.062 102 161.898 102.586C161.734 103.172 161.652 103.848 161.652 104.613V105.105C161.652 105.707 161.734 106.273 161.898 106.805C162.07 107.328 162.316 107.789 162.637 108.188C162.965 108.586 163.359 108.898 163.82 109.125C164.289 109.352 164.82 109.465 165.414 109.465C166.18 109.465 166.828 109.309 167.359 108.996C167.891 108.684 168.355 108.266 168.754 107.742L170.066 108.785C169.793 109.199 169.445 109.594 169.023 109.969C168.602 110.344 168.082 110.648 167.465 110.883C166.855 111.117 166.133 111.234 165.297 111.234ZM177.836 109.453C178.352 109.453 178.828 109.348 179.266 109.137C179.703 108.926 180.062 108.637 180.344 108.27C180.625 107.895 180.785 107.469 180.824 106.992H182.887C182.848 107.742 182.594 108.441 182.125 109.09C181.664 109.73 181.059 110.25 180.309 110.648C179.559 111.039 178.734 111.234 177.836 111.234C176.883 111.234 176.051 111.066 175.34 110.73C174.637 110.395 174.051 109.934 173.582 109.348C173.121 108.762 172.773 108.09 172.539 107.332C172.312 106.566 172.199 105.758 172.199 104.906V104.414C172.199 103.562 172.312 102.758 172.539 102C172.773 101.234 173.121 100.559 173.582 99.9727C174.051 99.3867 174.637 98.9258 175.34 98.5898C176.051 98.2539 176.883 98.0859 177.836 98.0859C178.828 98.0859 179.695 98.2891 180.438 98.6953C181.18 99.0938 181.762 99.6406 182.184 100.336C182.613 101.023 182.848 101.805 182.887 102.68H180.824C180.785 102.156 180.637 101.684 180.379 101.262C180.129 100.84 179.785 100.504 179.348 100.254C178.918 99.9961 178.414 99.8672 177.836 99.8672C177.172 99.8672 176.613 100 176.16 100.266C175.715 100.523 175.359 100.875 175.094 101.32C174.836 101.758 174.648 102.246 174.531 102.785C174.422 103.316 174.367 103.859 174.367 104.414V104.906C174.367 105.461 174.422 106.008 174.531 106.547C174.641 107.086 174.824 107.574 175.082 108.012C175.348 108.449 175.703 108.801 176.148 109.066C176.602 109.324 177.164 109.453 177.836 109.453ZM187.68 98.3203V111H185.512V98.3203H187.68ZM196 98.3203L189.988 105.586H186.953L186.625 103.688H189.109L193.363 98.3203H196ZM193.668 111L189.004 105.258L190.398 103.688L196.422 111H193.668ZM205.785 108.832V102.305C205.785 101.805 205.684 101.371 205.48 101.004C205.285 100.629 204.988 100.34 204.59 100.137C204.191 99.9336 203.699 99.832 203.113 99.832C202.566 99.832 202.086 99.9258 201.672 100.113C201.266 100.301 200.945 100.547 200.711 100.852C200.484 101.156 200.371 101.484 200.371 101.836H198.203C198.203 101.383 198.32 100.934 198.555 100.488C198.789 100.043 199.125 99.6406 199.562 99.2812C200.008 98.9141 200.539 98.625 201.156 98.4141C201.781 98.1953 202.477 98.0859 203.242 98.0859C204.164 98.0859 204.977 98.2422 205.68 98.5547C206.391 98.8672 206.945 99.3398 207.344 99.9727C207.75 100.598 207.953 101.383 207.953 102.328V108.234C207.953 108.656 207.988 109.105 208.059 109.582C208.137 110.059 208.25 110.469 208.398 110.812V111H206.137C206.027 110.75 205.941 110.418 205.879 110.004C205.816 109.582 205.785 109.191 205.785 108.832ZM206.16 103.312L206.184 104.836H203.992C203.375 104.836 202.824 104.887 202.34 104.988C201.855 105.082 201.449 105.227 201.121 105.422C200.793 105.617 200.543 105.863 200.371 106.16C200.199 106.449 200.113 106.789 200.113 107.18C200.113 107.578 200.203 107.941 200.383 108.27C200.562 108.598 200.832 108.859 201.191 109.055C201.559 109.242 202.008 109.336 202.539 109.336C203.203 109.336 203.789 109.195 204.297 108.914C204.805 108.633 205.207 108.289 205.504 107.883C205.809 107.477 205.973 107.082 205.996 106.699L206.922 107.742C206.867 108.07 206.719 108.434 206.477 108.832C206.234 109.23 205.91 109.613 205.504 109.98C205.105 110.34 204.629 110.641 204.074 110.883C203.527 111.117 202.91 111.234 202.223 111.234C201.363 111.234 200.609 111.066 199.961 110.73C199.32 110.395 198.82 109.945 198.461 109.383C198.109 108.812 197.934 108.176 197.934 107.473C197.934 106.793 198.066 106.195 198.332 105.68C198.598 105.156 198.98 104.723 199.48 104.379C199.98 104.027 200.582 103.762 201.285 103.582C201.988 103.402 202.773 103.312 203.641 103.312H206.16ZM213.93 104.953H216.273L212.605 111H210.262L213.93 104.953ZM215.746 98.3203H221.043V111H218.875V100.078H215.746C215.129 100.078 214.625 100.184 214.234 100.395C213.844 100.598 213.559 100.863 213.379 101.191C213.199 101.52 213.109 101.859 213.109 102.211C213.109 102.555 213.191 102.887 213.355 103.207C213.52 103.52 213.777 103.777 214.129 103.98C214.48 104.184 214.934 104.285 215.488 104.285H219.461V106.066H215.488C214.762 106.066 214.117 105.969 213.555 105.773C212.992 105.578 212.516 105.309 212.125 104.965C211.734 104.613 211.438 104.203 211.234 103.734C211.031 103.258 210.93 102.742 210.93 102.188C210.93 101.633 211.035 101.121 211.246 100.652C211.465 100.184 211.777 99.7734 212.184 99.4219C212.598 99.0703 213.102 98.8008 213.695 98.6133C214.297 98.418 214.98 98.3203 215.746 98.3203ZM232.832 107.566L238.68 98.3203H240.859V111H238.68V101.754L232.832 111H230.676V98.3203H232.832V107.566ZM237.496 93.7266H239.254C239.254 94.3359 239.113 94.8789 238.832 95.3555C238.551 95.8242 238.148 96.1914 237.625 96.457C237.102 96.7227 236.48 96.8555 235.762 96.8555C234.676 96.8555 233.816 96.5664 233.184 95.9883C232.559 95.4023 232.246 94.6484 232.246 93.7266H234.004C234.004 94.1875 234.137 94.5938 234.402 94.9453C234.668 95.2969 235.121 95.4727 235.762 95.4727C236.387 95.4727 236.832 95.2969 237.098 94.9453C237.363 94.5938 237.496 94.1875 237.496 93.7266ZM243.766 104.801V104.531C243.766 103.617 243.898 102.77 244.164 101.988C244.43 101.199 244.812 100.516 245.312 99.9375C245.812 99.3516 246.418 98.8984 247.129 98.5781C247.84 98.25 248.637 98.0859 249.52 98.0859C250.41 98.0859 251.211 98.25 251.922 98.5781C252.641 98.8984 253.25 99.3516 253.75 99.9375C254.258 100.516 254.645 101.199 254.91 101.988C255.176 102.77 255.309 103.617 255.309 104.531V104.801C255.309 105.715 255.176 106.562 254.91 107.344C254.645 108.125 254.258 108.809 253.75 109.395C253.25 109.973 252.645 110.426 251.934 110.754C251.23 111.074 250.434 111.234 249.543 111.234C248.652 111.234 247.852 111.074 247.141 110.754C246.43 110.426 245.82 109.973 245.312 109.395C244.812 108.809 244.43 108.125 244.164 107.344C243.898 106.562 243.766 105.715 243.766 104.801ZM245.934 104.531V104.801C245.934 105.434 246.008 106.031 246.156 106.594C246.305 107.148 246.527 107.641 246.824 108.07C247.129 108.5 247.508 108.84 247.961 109.09C248.414 109.332 248.941 109.453 249.543 109.453C250.137 109.453 250.656 109.332 251.102 109.09C251.555 108.84 251.93 108.5 252.227 108.07C252.523 107.641 252.746 107.148 252.895 106.594C253.051 106.031 253.129 105.434 253.129 104.801V104.531C253.129 103.906 253.051 103.316 252.895 102.762C252.746 102.199 252.52 101.703 252.215 101.273C251.918 100.836 251.543 100.492 251.09 100.242C250.645 99.9922 250.121 99.8672 249.52 99.8672C248.926 99.8672 248.402 99.9922 247.949 100.242C247.504 100.492 247.129 100.836 246.824 101.273C246.527 101.703 246.305 102.199 246.156 102.762C246.008 103.316 245.934 103.906 245.934 104.531ZM266.219 98.3203V100.113H260.359V111H258.191V98.3203H266.219ZM275.582 108.832V102.305C275.582 101.805 275.48 101.371 275.277 101.004C275.082 100.629 274.785 100.34 274.387 100.137C273.988 99.9336 273.496 99.832 272.91 99.832C272.363 99.832 271.883 99.9258 271.469 100.113C271.062 100.301 270.742 100.547 270.508 100.852C270.281 101.156 270.168 101.484 270.168 101.836H268C268 101.383 268.117 100.934 268.352 100.488C268.586 100.043 268.922 99.6406 269.359 99.2812C269.805 98.9141 270.336 98.625 270.953 98.4141C271.578 98.1953 272.273 98.0859 273.039 98.0859C273.961 98.0859 274.773 98.2422 275.477 98.5547C276.188 98.8672 276.742 99.3398 277.141 99.9727C277.547 100.598 277.75 101.383 277.75 102.328V108.234C277.75 108.656 277.785 109.105 277.855 109.582C277.934 110.059 278.047 110.469 278.195 110.812V111H275.934C275.824 110.75 275.738 110.418 275.676 110.004C275.613 109.582 275.582 109.191 275.582 108.832ZM275.957 103.312L275.98 104.836H273.789C273.172 104.836 272.621 104.887 272.137 104.988C271.652 105.082 271.246 105.227 270.918 105.422C270.59 105.617 270.34 105.863 270.168 106.16C269.996 106.449 269.91 106.789 269.91 107.18C269.91 107.578 270 107.941 270.18 108.27C270.359 108.598 270.629 108.859 270.988 109.055C271.355 109.242 271.805 109.336 272.336 109.336C273 109.336 273.586 109.195 274.094 108.914C274.602 108.633 275.004 108.289 275.301 107.883C275.605 107.477 275.77 107.082 275.793 106.699L276.719 107.742C276.664 108.07 276.516 108.434 276.273 108.832C276.031 109.23 275.707 109.613 275.301 109.98C274.902 110.34 274.426 110.641 273.871 110.883C273.324 111.117 272.707 111.234 272.02 111.234C271.16 111.234 270.406 111.066 269.758 110.73C269.117 110.395 268.617 109.945 268.258 109.383C267.906 108.812 267.73 108.176 267.73 107.473C267.73 106.793 267.863 106.195 268.129 105.68C268.395 105.156 268.777 104.723 269.277 104.379C269.777 104.027 270.379 103.762 271.082 103.582C271.785 103.402 272.57 103.312 273.438 103.312H275.957Z" fill="black"/>
<path d="M450.464 34.3675C450.62 33.7044 450.698 33.3729 450.824 33.2982C450.933 33.2339 451.067 33.2339 451.176 33.2982C451.302 33.3729 451.38 33.7044 451.536 34.3675L452.3 37.603C452.584 38.8064 452.726 39.408 453.034 39.896C453.307 40.3274 453.673 40.6929 454.104 40.9657C454.592 41.2743 455.194 41.4163 456.397 41.7003L459.632 42.4637C460.296 42.6202 460.627 42.6984 460.702 42.8242C460.766 42.9326 460.766 43.0674 460.702 43.1758C460.627 43.3016 460.296 43.3798 459.632 43.5363L456.397 44.2997C455.194 44.5837 454.592 44.7257 454.104 45.0343C453.673 45.3071 453.307 45.6726 453.034 46.104C452.726 46.592 452.584 47.1936 452.3 48.397L451.536 51.6325C451.38 52.2956 451.302 52.6271 451.176 52.7018C451.067 52.7661 450.933 52.7661 450.824 52.7018C450.698 52.6271 450.62 52.2956 450.464 51.6325L449.7 48.397C449.416 47.1936 449.274 46.592 448.966 46.104C448.693 45.6726 448.327 45.3071 447.896 45.0343C447.408 44.7257 446.806 44.5837 445.603 44.2997L442.368 43.5363C441.704 43.3798 441.373 43.3016 441.298 43.1758C441.234 43.0674 441.234 42.9326 441.298 42.8242C441.373 42.6984 441.704 42.6202 442.368 42.4637L445.603 41.7003C446.806 41.4163 447.408 41.2743 447.896 40.9657C448.327 40.6929 448.693 40.3274 448.966 39.896C449.274 39.408 449.416 38.8064 449.7 37.603L450.464 34.3675Z" fill="black"/>
<path d="M476.348 33.9375V51H474.086V33.9375H476.348ZM486.859 33.9375L479.453 43.3242H475.445L475.094 41.4492H478.105L484.059 33.9375H486.859ZM484.586 51L478.176 43.0312L479.441 41.0508L487.352 51H484.586ZM492.168 49.6875L495.695 38.3203H498.016L492.93 52.957C492.812 53.2695 492.656 53.6055 492.461 53.9648C492.273 54.332 492.031 54.6797 491.734 55.0078C491.438 55.3359 491.078 55.6016 490.656 55.8047C490.242 56.0156 489.746 56.1211 489.168 56.1211C488.996 56.1211 488.777 56.0977 488.512 56.0508C488.246 56.0039 488.059 55.9648 487.949 55.9336L487.938 54.1758C488 54.1836 488.098 54.1914 488.23 54.1992C488.371 54.2148 488.469 54.2227 488.523 54.2227C489.016 54.2227 489.434 54.1562 489.777 54.0234C490.121 53.8984 490.41 53.6836 490.645 53.3789C490.887 53.082 491.094 52.6719 491.266 52.1484L492.168 49.6875ZM489.578 38.3203L492.871 48.1641L493.434 50.4492L491.875 51.2461L487.211 38.3203H489.578ZM508.574 43.8164V45.5742H501.871V43.8164H508.574ZM502.328 38.3203V51H500.16V38.3203H502.328ZM510.332 38.3203V51H508.152V38.3203H510.332ZM516.109 38.3203H518.277L518.09 43.0664C518.043 44.2695 517.906 45.3086 517.68 46.1836C517.453 47.0586 517.164 47.8047 516.812 48.4219C516.461 49.0312 516.066 49.543 515.629 49.957C515.199 50.3711 514.754 50.7188 514.293 51H513.215L513.273 49.2305L513.719 49.2188C513.977 48.9141 514.227 48.6016 514.469 48.2812C514.711 47.9531 514.934 47.5664 515.137 47.1211C515.34 46.668 515.508 46.1172 515.641 45.4688C515.781 44.8125 515.871 44.0117 515.91 43.0664L516.109 38.3203ZM516.648 38.3203H524.277V51H522.109V40.3242H516.648V38.3203ZM512.723 49.2188H525.906V54.7383H523.738V51H514.891V54.7383H512.711L512.723 49.2188ZM535.785 48.832V42.3047C535.785 41.8047 535.684 41.3711 535.48 41.0039C535.285 40.6289 534.988 40.3398 534.59 40.1367C534.191 39.9336 533.699 39.832 533.113 39.832C532.566 39.832 532.086 39.9258 531.672 40.1133C531.266 40.3008 530.945 40.5469 530.711 40.8516C530.484 41.1562 530.371 41.4844 530.371 41.8359H528.203C528.203 41.3828 528.32 40.9336 528.555 40.4883C528.789 40.043 529.125 39.6406 529.562 39.2812C530.008 38.9141 530.539 38.625 531.156 38.4141C531.781 38.1953 532.477 38.0859 533.242 38.0859C534.164 38.0859 534.977 38.2422 535.68 38.5547C536.391 38.8672 536.945 39.3398 537.344 39.9727C537.75 40.5977 537.953 41.3828 537.953 42.3281V48.2344C537.953 48.6562 537.988 49.1055 538.059 49.582C538.137 50.0586 538.25 50.4688 538.398 50.8125V51H536.137C536.027 50.75 535.941 50.418 535.879 50.0039C535.816 49.582 535.785 49.1914 535.785 48.832ZM536.16 43.3125L536.184 44.8359H533.992C533.375 44.8359 532.824 44.8867 532.34 44.9883C531.855 45.082 531.449 45.2266 531.121 45.4219C530.793 45.6172 530.543 45.8633 530.371 46.1602C530.199 46.4492 530.113 46.7891 530.113 47.1797C530.113 47.5781 530.203 47.9414 530.383 48.2695C530.562 48.5977 530.832 48.8594 531.191 49.0547C531.559 49.2422 532.008 49.3359 532.539 49.3359C533.203 49.3359 533.789 49.1953 534.297 48.9141C534.805 48.6328 535.207 48.2891 535.504 47.8828C535.809 47.4766 535.973 47.082 535.996 46.6992L536.922 47.7422C536.867 48.0703 536.719 48.4336 536.477 48.832C536.234 49.2305 535.91 49.6133 535.504 49.9805C535.105 50.3398 534.629 50.6406 534.074 50.8828C533.527 51.1172 532.91 51.2344 532.223 51.2344C531.363 51.2344 530.609 51.0664 529.961 50.7305C529.32 50.3945 528.82 49.9453 528.461 49.3828C528.109 48.8125 527.934 48.1758 527.934 47.4727C527.934 46.793 528.066 46.1953 528.332 45.6797C528.598 45.1562 528.98 44.7227 529.48 44.3789C529.98 44.0273 530.582 43.7617 531.285 43.582C531.988 43.4023 532.773 43.3125 533.641 43.3125H536.16ZM549.836 38.3203V40.1133H543.707V38.3203H549.836ZM551.746 38.3203V51H549.578V38.3203H551.746ZM543.18 38.3203H545.359L545.031 44.4375C544.977 45.3828 544.887 46.2188 544.762 46.9453C544.645 47.6641 544.48 48.2812 544.27 48.7969C544.066 49.3125 543.809 49.7344 543.496 50.0625C543.191 50.3828 542.824 50.6211 542.395 50.7773C541.965 50.9258 541.469 51 540.906 51H540.227V49.0898L540.695 49.0547C541.031 49.0312 541.316 48.9531 541.551 48.8203C541.793 48.6875 541.996 48.4922 542.16 48.2344C542.324 47.9688 542.457 47.6289 542.559 47.2148C542.668 46.8008 542.75 46.3086 542.805 45.7383C542.867 45.168 542.914 44.5039 542.945 43.7461L543.18 38.3203ZM557.582 47.5664L563.43 38.3203H565.609V51H563.43V41.7539L557.582 51H555.426V38.3203H557.582V47.5664ZM577.691 43.8164V45.5742H570.988V43.8164H577.691ZM571.445 38.3203V51H569.277V38.3203H571.445ZM579.449 38.3203V51H577.27V38.3203H579.449ZM585.285 47.5664L591.133 38.3203H593.312V51H591.133V41.7539L585.285 51H583.129V38.3203H585.285V47.5664ZM601.305 42.8555V44.6367H595.586V42.8555H601.305ZM605.77 47.5664L611.617 38.3203H613.797V51H611.617V41.7539L605.77 51H603.613V38.3203H605.77V47.5664ZM610.434 33.7266H612.191C612.191 34.3359 612.051 34.8789 611.77 35.3555C611.488 35.8242 611.086 36.1914 610.562 36.457C610.039 36.7227 609.418 36.8555 608.699 36.8555C607.613 36.8555 606.754 36.5664 606.121 35.9883C605.496 35.4023 605.184 34.6484 605.184 33.7266H606.941C606.941 34.1875 607.074 34.5938 607.34 34.9453C607.605 35.2969 608.059 35.4727 608.699 35.4727C609.324 35.4727 609.77 35.2969 610.035 34.9453C610.301 34.5938 610.434 34.1875 610.434 33.7266ZM616.703 44.8008V44.5312C616.703 43.6172 616.836 42.7695 617.102 41.9883C617.367 41.1992 617.75 40.5156 618.25 39.9375C618.75 39.3516 619.355 38.8984 620.066 38.5781C620.777 38.25 621.574 38.0859 622.457 38.0859C623.348 38.0859 624.148 38.25 624.859 38.5781C625.578 38.8984 626.188 39.3516 626.688 39.9375C627.195 40.5156 627.582 41.1992 627.848 41.9883C628.113 42.7695 628.246 43.6172 628.246 44.5312V44.8008C628.246 45.7148 628.113 46.5625 627.848 47.3438C627.582 48.125 627.195 48.8086 626.688 49.3945C626.188 49.9727 625.582 50.4258 624.871 50.7539C624.168 51.0742 623.371 51.2344 622.48 51.2344C621.59 51.2344 620.789 51.0742 620.078 50.7539C619.367 50.4258 618.758 49.9727 618.25 49.3945C617.75 48.8086 617.367 48.125 617.102 47.3438C616.836 46.5625 616.703 45.7148 616.703 44.8008ZM618.871 44.5312V44.8008C618.871 45.4336 618.945 46.0312 619.094 46.5938C619.242 47.1484 619.465 47.6406 619.762 48.0703C620.066 48.5 620.445 48.8398 620.898 49.0898C621.352 49.332 621.879 49.4531 622.48 49.4531C623.074 49.4531 623.594 49.332 624.039 49.0898C624.492 48.8398 624.867 48.5 625.164 48.0703C625.461 47.6406 625.684 47.1484 625.832 46.5938C625.988 46.0312 626.066 45.4336 626.066 44.8008V44.5312C626.066 43.9062 625.988 43.3164 625.832 42.7617C625.684 42.1992 625.457 41.7031 625.152 41.2734C624.855 40.8359 624.48 40.4922 624.027 40.2422C623.582 39.9922 623.059 39.8672 622.457 39.8672C621.863 39.8672 621.34 39.9922 620.887 40.2422C620.441 40.4922 620.066 40.8359 619.762 41.2734C619.465 41.7031 619.242 42.1992 619.094 42.7617C618.945 43.3164 618.871 43.9062 618.871 44.5312ZM639.156 38.3203V40.1133H633.297V51H631.129V38.3203H639.156ZM648.52 48.832V42.3047C648.52 41.8047 648.418 41.3711 648.215 41.0039C648.02 40.6289 647.723 40.3398 647.324 40.1367C646.926 39.9336 646.434 39.832 645.848 39.832C645.301 39.832 644.82 39.9258 644.406 40.1133C644 40.3008 643.68 40.5469 643.445 40.8516C643.219 41.1562 643.105 41.4844 643.105 41.8359H640.938C640.938 41.3828 641.055 40.9336 641.289 40.4883C641.523 40.043 641.859 39.6406 642.297 39.2812C642.742 38.9141 643.273 38.625 643.891 38.4141C644.516 38.1953 645.211 38.0859 645.977 38.0859C646.898 38.0859 647.711 38.2422 648.414 38.5547C649.125 38.8672 649.68 39.3398 650.078 39.9727C650.484 40.5977 650.688 41.3828 650.688 42.3281V48.2344C650.688 48.6562 650.723 49.1055 650.793 49.582C650.871 50.0586 650.984 50.4688 651.133 50.8125V51H648.871C648.762 50.75 648.676 50.418 648.613 50.0039C648.551 49.582 648.52 49.1914 648.52 48.832ZM648.895 43.3125L648.918 44.8359H646.727C646.109 44.8359 645.559 44.8867 645.074 44.9883C644.59 45.082 644.184 45.2266 643.855 45.4219C643.527 45.6172 643.277 45.8633 643.105 46.1602C642.934 46.4492 642.848 46.7891 642.848 47.1797C642.848 47.5781 642.938 47.9414 643.117 48.2695C643.297 48.5977 643.566 48.8594 643.926 49.0547C644.293 49.2422 644.742 49.3359 645.273 49.3359C645.938 49.3359 646.523 49.1953 647.031 48.9141C647.539 48.6328 647.941 48.2891 648.238 47.8828C648.543 47.4766 648.707 47.082 648.73 46.6992L649.656 47.7422C649.602 48.0703 649.453 48.4336 649.211 48.832C648.969 49.2305 648.645 49.6133 648.238 49.9805C647.84 50.3398 647.363 50.6406 646.809 50.8828C646.262 51.1172 645.645 51.2344 644.957 51.2344C644.098 51.2344 643.344 51.0664 642.695 50.7305C642.055 50.3945 641.555 49.9453 641.195 49.3828C640.844 48.8125 640.668 48.1758 640.668 47.4727C640.668 46.793 640.801 46.1953 641.066 45.6797C641.332 45.1562 641.715 44.7227 642.215 44.3789C642.715 44.0273 643.316 43.7617 644.02 43.582C644.723 43.4023 645.508 43.3125 646.375 43.3125H648.895Z" fill="black"/>
<path d="M450.464 94.3675C450.62 93.7044 450.698 93.3729 450.824 93.2982C450.933 93.2339 451.067 93.2339 451.176 93.2982C451.302 93.3729 451.38 93.7044 451.536 94.3675L452.3 97.603C452.584 98.8064 452.726 99.408 453.034 99.896C453.307 100.327 453.673 100.693 454.104 100.966C454.592 101.274 455.194 101.416 456.397 101.7L459.632 102.464C460.296 102.62 460.627 102.698 460.702 102.824C460.766 102.933 460.766 103.067 460.702 103.176C460.627 103.302 460.296 103.38 459.632 103.536L456.397 104.3C455.194 104.584 454.592 104.726 454.104 105.034C453.673 105.307 453.307 105.673 453.034 106.104C452.726 106.592 452.584 107.194 452.3 108.397L451.536 111.632C451.38 112.296 451.302 112.627 451.176 112.702C451.067 112.766 450.933 112.766 450.824 112.702C450.698 112.627 450.62 112.296 450.464 111.632L449.7 108.397C449.416 107.194 449.274 106.592 448.966 106.104C448.693 105.673 448.327 105.307 447.896 105.034C447.408 104.726 446.806 104.584 445.603 104.3L442.368 103.536C441.704 103.38 441.373 103.302 441.298 103.176C441.234 103.067 441.234 102.933 441.298 102.824C441.373 102.698 441.704 102.62 442.368 102.464L445.603 101.7C446.806 101.416 447.408 101.274 447.896 100.966C448.327 100.693 448.693 100.327 448.966 99.896C449.274 99.408 449.416 98.8064 449.7 97.603L450.464 94.3675Z" fill="black"/>
<path d="M476.336 107.086L484.738 93.9375H487V111H484.738V97.8398L476.336 111H474.086V93.9375H476.336V107.086ZM482.336 89.707H484.094C484.094 90.3164 483.953 90.8594 483.672 91.3359C483.391 91.8047 482.988 92.1719 482.465 92.4375C481.941 92.7031 481.32 92.8359 480.602 92.8359C479.516 92.8359 478.656 92.5469 478.023 91.9688C477.398 91.3828 477.086 90.6289 477.086 89.707H478.844C478.844 90.168 478.977 90.5742 479.242 90.9258C479.508 91.2773 479.961 91.4531 480.602 91.4531C481.227 91.4531 481.672 91.2773 481.938 90.9258C482.203 90.5742 482.336 90.168 482.336 89.707ZM490.211 104.801V104.531C490.211 103.617 490.344 102.77 490.609 101.988C490.875 101.199 491.258 100.516 491.758 99.9375C492.258 99.3516 492.863 98.8984 493.574 98.5781C494.285 98.25 495.082 98.0859 495.965 98.0859C496.855 98.0859 497.656 98.25 498.367 98.5781C499.086 98.8984 499.695 99.3516 500.195 99.9375C500.703 100.516 501.09 101.199 501.355 101.988C501.621 102.77 501.754 103.617 501.754 104.531V104.801C501.754 105.715 501.621 106.562 501.355 107.344C501.09 108.125 500.703 108.809 500.195 109.395C499.695 109.973 499.09 110.426 498.379 110.754C497.676 111.074 496.879 111.234 495.988 111.234C495.098 111.234 494.297 111.074 493.586 110.754C492.875 110.426 492.266 109.973 491.758 109.395C491.258 108.809 490.875 108.125 490.609 107.344C490.344 106.562 490.211 105.715 490.211 104.801ZM492.379 104.531V104.801C492.379 105.434 492.453 106.031 492.602 106.594C492.75 107.148 492.973 107.641 493.27 108.07C493.574 108.5 493.953 108.84 494.406 109.09C494.859 109.332 495.387 109.453 495.988 109.453C496.582 109.453 497.102 109.332 497.547 109.09C498 108.84 498.375 108.5 498.672 108.07C498.969 107.641 499.191 107.148 499.34 106.594C499.496 106.031 499.574 105.434 499.574 104.801V104.531C499.574 103.906 499.496 103.316 499.34 102.762C499.191 102.199 498.965 101.703 498.66 101.273C498.363 100.836 497.988 100.492 497.535 100.242C497.09 99.9922 496.566 99.8672 495.965 99.8672C495.371 99.8672 494.848 99.9922 494.395 100.242C493.949 100.492 493.574 100.836 493.27 101.273C492.973 101.703 492.75 102.199 492.602 102.762C492.453 103.316 492.379 103.906 492.379 104.531ZM512.664 98.3203V100.113H506.805V111H504.637V98.3203H512.664ZM522.027 108.832V102.305C522.027 101.805 521.926 101.371 521.723 101.004C521.527 100.629 521.23 100.34 520.832 100.137C520.434 99.9336 519.941 99.832 519.355 99.832C518.809 99.832 518.328 99.9258 517.914 100.113C517.508 100.301 517.188 100.547 516.953 100.852C516.727 101.156 516.613 101.484 516.613 101.836H514.445C514.445 101.383 514.562 100.934 514.797 100.488C515.031 100.043 515.367 99.6406 515.805 99.2812C516.25 98.9141 516.781 98.625 517.398 98.4141C518.023 98.1953 518.719 98.0859 519.484 98.0859C520.406 98.0859 521.219 98.2422 521.922 98.5547C522.633 98.8672 523.188 99.3398 523.586 99.9727C523.992 100.598 524.195 101.383 524.195 102.328V108.234C524.195 108.656 524.23 109.105 524.301 109.582C524.379 110.059 524.492 110.469 524.641 110.812V111H522.379C522.27 110.75 522.184 110.418 522.121 110.004C522.059 109.582 522.027 109.191 522.027 108.832ZM522.402 103.312L522.426 104.836H520.234C519.617 104.836 519.066 104.887 518.582 104.988C518.098 105.082 517.691 105.227 517.363 105.422C517.035 105.617 516.785 105.863 516.613 106.16C516.441 106.449 516.355 106.789 516.355 107.18C516.355 107.578 516.445 107.941 516.625 108.27C516.805 108.598 517.074 108.859 517.434 109.055C517.801 109.242 518.25 109.336 518.781 109.336C519.445 109.336 520.031 109.195 520.539 108.914C521.047 108.633 521.449 108.289 521.746 107.883C522.051 107.477 522.215 107.082 522.238 106.699L523.164 107.742C523.109 108.07 522.961 108.434 522.719 108.832C522.477 109.23 522.152 109.613 521.746 109.98C521.348 110.34 520.871 110.641 520.316 110.883C519.77 111.117 519.152 111.234 518.465 111.234C517.605 111.234 516.852 111.066 516.203 110.73C515.562 110.395 515.062 109.945 514.703 109.383C514.352 108.812 514.176 108.176 514.176 107.473C514.176 106.793 514.309 106.195 514.574 105.68C514.84 105.156 515.223 104.723 515.723 104.379C516.223 104.027 516.824 103.762 517.527 103.582C518.23 103.402 519.016 103.312 519.883 103.312H522.402ZM532.586 98.3203V111H530.406V98.3203H532.586ZM536.84 98.3203V100.078H526.234V98.3203H536.84ZM543.297 111.234C542.414 111.234 541.613 111.086 540.895 110.789C540.184 110.484 539.57 110.059 539.055 109.512C538.547 108.965 538.156 108.316 537.883 107.566C537.609 106.816 537.473 105.996 537.473 105.105V104.613C537.473 103.582 537.625 102.664 537.93 101.859C538.234 101.047 538.648 100.359 539.172 99.7969C539.695 99.2344 540.289 98.8086 540.953 98.5195C541.617 98.2305 542.305 98.0859 543.016 98.0859C543.922 98.0859 544.703 98.2422 545.359 98.5547C546.023 98.8672 546.566 99.3047 546.988 99.8672C547.41 100.422 547.723 101.078 547.926 101.836C548.129 102.586 548.23 103.406 548.23 104.297V105.27H538.762V103.5H546.062V103.336C546.031 102.773 545.914 102.227 545.711 101.695C545.516 101.164 545.203 100.727 544.773 100.383C544.344 100.039 543.758 99.8672 543.016 99.8672C542.523 99.8672 542.07 99.9727 541.656 100.184C541.242 100.387 540.887 100.691 540.59 101.098C540.293 101.504 540.062 102 539.898 102.586C539.734 103.172 539.652 103.848 539.652 104.613V105.105C539.652 105.707 539.734 106.273 539.898 106.805C540.07 107.328 540.316 107.789 540.637 108.188C540.965 108.586 541.359 108.898 541.82 109.125C542.289 109.352 542.82 109.465 543.414 109.465C544.18 109.465 544.828 109.309 545.359 108.996C545.891 108.684 546.355 108.266 546.754 107.742L548.066 108.785C547.793 109.199 547.445 109.594 547.023 109.969C546.602 110.344 546.082 110.648 545.465 110.883C544.855 111.117 544.133 111.234 543.297 111.234ZM552.93 100.758V115.875H550.75V98.3203H552.742L552.93 100.758ZM561.473 104.555V104.801C561.473 105.723 561.363 106.578 561.145 107.367C560.926 108.148 560.605 108.828 560.184 109.406C559.77 109.984 559.258 110.434 558.648 110.754C558.039 111.074 557.34 111.234 556.551 111.234C555.746 111.234 555.035 111.102 554.418 110.836C553.801 110.57 553.277 110.184 552.848 109.676C552.418 109.168 552.074 108.559 551.816 107.848C551.566 107.137 551.395 106.336 551.301 105.445V104.133C551.395 103.195 551.57 102.355 551.828 101.613C552.086 100.871 552.426 100.238 552.848 99.7148C553.277 99.1836 553.797 98.7812 554.406 98.5078C555.016 98.2266 555.719 98.0859 556.516 98.0859C557.312 98.0859 558.02 98.2422 558.637 98.5547C559.254 98.8594 559.773 99.2969 560.195 99.8672C560.617 100.438 560.934 101.121 561.145 101.918C561.363 102.707 561.473 103.586 561.473 104.555ZM559.293 104.801V104.555C559.293 103.922 559.227 103.328 559.094 102.773C558.961 102.211 558.754 101.719 558.473 101.297C558.199 100.867 557.848 100.531 557.418 100.289C556.988 100.039 556.477 99.9141 555.883 99.9141C555.336 99.9141 554.859 100.008 554.453 100.195C554.055 100.383 553.715 100.637 553.434 100.957C553.152 101.27 552.922 101.629 552.742 102.035C552.57 102.434 552.441 102.848 552.355 103.277V106.312C552.512 106.859 552.73 107.375 553.012 107.859C553.293 108.336 553.668 108.723 554.137 109.02C554.605 109.309 555.195 109.453 555.906 109.453C556.492 109.453 556.996 109.332 557.418 109.09C557.848 108.84 558.199 108.5 558.473 108.07C558.754 107.641 558.961 107.148 559.094 106.594C559.227 106.031 559.293 105.434 559.293 104.801ZM571.715 108.832V102.305C571.715 101.805 571.613 101.371 571.41 101.004C571.215 100.629 570.918 100.34 570.52 100.137C570.121 99.9336 569.629 99.832 569.043 99.832C568.496 99.832 568.016 99.9258 567.602 100.113C567.195 100.301 566.875 100.547 566.641 100.852C566.414 101.156 566.301 101.484 566.301 101.836H564.133C564.133 101.383 564.25 100.934 564.484 100.488C564.719 100.043 565.055 99.6406 565.492 99.2812C565.938 98.9141 566.469 98.625 567.086 98.4141C567.711 98.1953 568.406 98.0859 569.172 98.0859C570.094 98.0859 570.906 98.2422 571.609 98.5547C572.32 98.8672 572.875 99.3398 573.273 99.9727C573.68 100.598 573.883 101.383 573.883 102.328V108.234C573.883 108.656 573.918 109.105 573.988 109.582C574.066 110.059 574.18 110.469 574.328 110.812V111H572.066C571.957 110.75 571.871 110.418 571.809 110.004C571.746 109.582 571.715 109.191 571.715 108.832ZM572.09 103.312L572.113 104.836H569.922C569.305 104.836 568.754 104.887 568.27 104.988C567.785 105.082 567.379 105.227 567.051 105.422C566.723 105.617 566.473 105.863 566.301 106.16C566.129 106.449 566.043 106.789 566.043 107.18C566.043 107.578 566.133 107.941 566.312 108.27C566.492 108.598 566.762 108.859 567.121 109.055C567.488 109.242 567.938 109.336 568.469 109.336C569.133 109.336 569.719 109.195 570.227 108.914C570.734 108.633 571.137 108.289 571.434 107.883C571.738 107.477 571.902 107.082 571.926 106.699L572.852 107.742C572.797 108.07 572.648 108.434 572.406 108.832C572.164 109.23 571.84 109.613 571.434 109.98C571.035 110.34 570.559 110.641 570.004 110.883C569.457 111.117 568.84 111.234 568.152 111.234C567.293 111.234 566.539 111.066 565.891 110.73C565.25 110.395 564.75 109.945 564.391 109.383C564.039 108.812 563.863 108.176 563.863 107.473C563.863 106.793 563.996 106.195 564.262 105.68C564.527 105.156 564.91 104.723 565.41 104.379C565.91 104.027 566.512 103.762 567.215 103.582C567.918 103.402 568.703 103.312 569.57 103.312H572.09ZM585.742 98.3203V100.113H579.332V98.3203H585.742ZM579.648 98.3203V111H577.48V98.3203H579.648ZM587.664 98.3203V111H585.484V98.3203H587.664ZM593.488 107.566L599.336 98.3203H601.516V111H599.336V101.754L593.488 111H591.332V98.3203H593.488V107.566ZM607.562 104.953H609.906L606.238 111H603.895L607.562 104.953ZM609.379 98.3203H614.676V111H612.508V100.078H609.379C608.762 100.078 608.258 100.184 607.867 100.395C607.477 100.598 607.191 100.863 607.012 101.191C606.832 101.52 606.742 101.859 606.742 102.211C606.742 102.555 606.824 102.887 606.988 103.207C607.152 103.52 607.41 103.777 607.762 103.98C608.113 104.184 608.566 104.285 609.121 104.285H613.094V106.066H609.121C608.395 106.066 607.75 105.969 607.188 105.773C606.625 105.578 606.148 105.309 605.758 104.965C605.367 104.613 605.07 104.203 604.867 103.734C604.664 103.258 604.562 102.742 604.562 102.188C604.562 101.633 604.668 101.121 604.879 100.652C605.098 100.184 605.41 99.7734 605.816 99.4219C606.23 99.0703 606.734 98.8008 607.328 98.6133C607.93 98.418 608.613 98.3203 609.379 98.3203Z" fill="black"/>
<path d="M858.464 34.3675C858.62 33.7044 858.698 33.3729 858.824 33.2982C858.933 33.2339 859.067 33.2339 859.176 33.2982C859.302 33.3729 859.38 33.7044 859.536 34.3675L860.3 37.603C860.584 38.8064 860.726 39.408 861.034 39.896C861.307 40.3274 861.673 40.6929 862.104 40.9657C862.592 41.2743 863.194 41.4163 864.397 41.7003L867.632 42.4637C868.296 42.6202 868.627 42.6984 868.702 42.8242C868.766 42.9326 868.766 43.0674 868.702 43.1758C868.627 43.3016 868.296 43.3798 867.632 43.5363L864.397 44.2997C863.194 44.5837 862.592 44.7257 862.104 45.0343C861.673 45.3071 861.307 45.6726 861.034 46.104C860.726 46.592 860.584 47.1936 860.3 48.397L859.536 51.6325C859.38 52.2956 859.302 52.6271 859.176 52.7018C859.067 52.7661 858.933 52.7661 858.824 52.7018C858.698 52.6271 858.62 52.2956 858.464 51.6325L857.7 48.397C857.416 47.1936 857.274 46.592 856.966 46.104C856.693 45.6726 856.327 45.3071 855.896 45.0343C855.408 44.7257 854.806 44.5837 853.603 44.2997L850.368 43.5363C849.704 43.3798 849.373 43.3016 849.298 43.1758C849.234 43.0674 849.234 42.9326 849.298 42.8242C849.373 42.6984 849.704 42.6202 850.368 42.4637L853.603 41.7003C854.806 41.4163 855.408 41.2743 855.896 40.9657C856.327 40.6929 856.693 40.3274 856.966 39.896C857.274 39.408 857.416 38.8064 857.7 37.603L858.464 34.3675Z" fill="black"/>
<path d="M883.445 33.9375L887.547 40.4766L891.648 33.9375H894.285L888.895 42.3867L894.414 51H891.754L887.547 44.332L883.34 51H880.68L886.199 42.3867L880.809 33.9375H883.445ZM904.176 48.832V42.3047C904.176 41.8047 904.074 41.3711 903.871 41.0039C903.676 40.6289 903.379 40.3398 902.98 40.1367C902.582 39.9336 902.09 39.832 901.504 39.832C900.957 39.832 900.477 39.9258 900.062 40.1133C899.656 40.3008 899.336 40.5469 899.102 40.8516C898.875 41.1562 898.762 41.4844 898.762 41.8359H896.594C896.594 41.3828 896.711 40.9336 896.945 40.4883C897.18 40.043 897.516 39.6406 897.953 39.2812C898.398 38.9141 898.93 38.625 899.547 38.4141C900.172 38.1953 900.867 38.0859 901.633 38.0859C902.555 38.0859 903.367 38.2422 904.07 38.5547C904.781 38.8672 905.336 39.3398 905.734 39.9727C906.141 40.5977 906.344 41.3828 906.344 42.3281V48.2344C906.344 48.6562 906.379 49.1055 906.449 49.582C906.527 50.0586 906.641 50.4688 906.789 50.8125V51H904.527C904.418 50.75 904.332 50.418 904.27 50.0039C904.207 49.582 904.176 49.1914 904.176 48.832ZM904.551 43.3125L904.574 44.8359H902.383C901.766 44.8359 901.215 44.8867 900.73 44.9883C900.246 45.082 899.84 45.2266 899.512 45.4219C899.184 45.6172 898.934 45.8633 898.762 46.1602C898.59 46.4492 898.504 46.7891 898.504 47.1797C898.504 47.5781 898.594 47.9414 898.773 48.2695C898.953 48.5977 899.223 48.8594 899.582 49.0547C899.949 49.2422 900.398 49.3359 900.93 49.3359C901.594 49.3359 902.18 49.1953 902.688 48.9141C903.195 48.6328 903.598 48.2891 903.895 47.8828C904.199 47.4766 904.363 47.082 904.387 46.6992L905.312 47.7422C905.258 48.0703 905.109 48.4336 904.867 48.832C904.625 49.2305 904.301 49.6133 903.895 49.9805C903.496 50.3398 903.02 50.6406 902.465 50.8828C901.918 51.1172 901.301 51.2344 900.613 51.2344C899.754 51.2344 899 51.0664 898.352 50.7305C897.711 50.3945 897.211 49.9453 896.852 49.3828C896.5 48.8125 896.324 48.1758 896.324 47.4727C896.324 46.793 896.457 46.1953 896.723 45.6797C896.988 45.1562 897.371 44.7227 897.871 44.3789C898.371 44.0273 898.973 43.7617 899.676 43.582C900.379 43.4023 901.164 43.3125 902.031 43.3125H904.551ZM914.734 38.3203V51H912.555V38.3203H914.734ZM918.988 38.3203V40.0781H908.383V38.3203H918.988ZM922.586 38.3203L925.363 42.9375L928.176 38.3203H930.719L926.57 44.5781L930.848 51H928.34L925.41 46.2422L922.48 51H919.961L924.227 44.5781L920.09 38.3203H922.586ZM940.504 48.832V42.3047C940.504 41.8047 940.402 41.3711 940.199 41.0039C940.004 40.6289 939.707 40.3398 939.309 40.1367C938.91 39.9336 938.418 39.832 937.832 39.832C937.285 39.832 936.805 39.9258 936.391 40.1133C935.984 40.3008 935.664 40.5469 935.43 40.8516C935.203 41.1562 935.09 41.4844 935.09 41.8359H932.922C932.922 41.3828 933.039 40.9336 933.273 40.4883C933.508 40.043 933.844 39.6406 934.281 39.2812C934.727 38.9141 935.258 38.625 935.875 38.4141C936.5 38.1953 937.195 38.0859 937.961 38.0859C938.883 38.0859 939.695 38.2422 940.398 38.5547C941.109 38.8672 941.664 39.3398 942.062 39.9727C942.469 40.5977 942.672 41.3828 942.672 42.3281V48.2344C942.672 48.6562 942.707 49.1055 942.777 49.582C942.855 50.0586 942.969 50.4688 943.117 50.8125V51H940.855C940.746 50.75 940.66 50.418 940.598 50.0039C940.535 49.582 940.504 49.1914 940.504 48.832ZM940.879 43.3125L940.902 44.8359H938.711C938.094 44.8359 937.543 44.8867 937.059 44.9883C936.574 45.082 936.168 45.2266 935.84 45.4219C935.512 45.6172 935.262 45.8633 935.09 46.1602C934.918 46.4492 934.832 46.7891 934.832 47.1797C934.832 47.5781 934.922 47.9414 935.102 48.2695C935.281 48.5977 935.551 48.8594 935.91 49.0547C936.277 49.2422 936.727 49.3359 937.258 49.3359C937.922 49.3359 938.508 49.1953 939.016 48.9141C939.523 48.6328 939.926 48.2891 940.223 47.8828C940.527 47.4766 940.691 47.082 940.715 46.6992L941.641 47.7422C941.586 48.0703 941.438 48.4336 941.195 48.832C940.953 49.2305 940.629 49.6133 940.223 49.9805C939.824 50.3398 939.348 50.6406 938.793 50.8828C938.246 51.1172 937.629 51.2344 936.941 51.2344C936.082 51.2344 935.328 51.0664 934.68 50.7305C934.039 50.3945 933.539 49.9453 933.18 49.3828C932.828 48.8125 932.652 48.1758 932.652 47.4727C932.652 46.793 932.785 46.1953 933.051 45.6797C933.316 45.1562 933.699 44.7227 934.199 44.3789C934.699 44.0273 935.301 43.7617 936.004 43.582C936.707 43.4023 937.492 43.3125 938.359 43.3125H940.879ZM950.594 42.8555V44.6367H944.875V42.8555H950.594ZM955.059 47.5664L960.906 38.3203H963.086V51H960.906V41.7539L955.059 51H952.902V38.3203H955.059V47.5664ZM959.723 33.7266H961.48C961.48 34.3359 961.34 34.8789 961.059 35.3555C960.777 35.8242 960.375 36.1914 959.852 36.457C959.328 36.7227 958.707 36.8555 957.988 36.8555C956.902 36.8555 956.043 36.5664 955.41 35.9883C954.785 35.4023 954.473 34.6484 954.473 33.7266H956.23C956.23 34.1875 956.363 34.5938 956.629 34.9453C956.895 35.2969 957.348 35.4727 957.988 35.4727C958.613 35.4727 959.059 35.2969 959.324 34.9453C959.59 34.5938 959.723 34.1875 959.723 33.7266ZM965.992 44.8008V44.5312C965.992 43.6172 966.125 42.7695 966.391 41.9883C966.656 41.1992 967.039 40.5156 967.539 39.9375C968.039 39.3516 968.645 38.8984 969.355 38.5781C970.066 38.25 970.863 38.0859 971.746 38.0859C972.637 38.0859 973.438 38.25 974.148 38.5781C974.867 38.8984 975.477 39.3516 975.977 39.9375C976.484 40.5156 976.871 41.1992 977.137 41.9883C977.402 42.7695 977.535 43.6172 977.535 44.5312V44.8008C977.535 45.7148 977.402 46.5625 977.137 47.3438C976.871 48.125 976.484 48.8086 975.977 49.3945C975.477 49.9727 974.871 50.4258 974.16 50.7539C973.457 51.0742 972.66 51.2344 971.77 51.2344C970.879 51.2344 970.078 51.0742 969.367 50.7539C968.656 50.4258 968.047 49.9727 967.539 49.3945C967.039 48.8086 966.656 48.125 966.391 47.3438C966.125 46.5625 965.992 45.7148 965.992 44.8008ZM968.16 44.5312V44.8008C968.16 45.4336 968.234 46.0312 968.383 46.5938C968.531 47.1484 968.754 47.6406 969.051 48.0703C969.355 48.5 969.734 48.8398 970.188 49.0898C970.641 49.332 971.168 49.4531 971.77 49.4531C972.363 49.4531 972.883 49.332 973.328 49.0898C973.781 48.8398 974.156 48.5 974.453 48.0703C974.75 47.6406 974.973 47.1484 975.121 46.5938C975.277 46.0312 975.355 45.4336 975.355 44.8008V44.5312C975.355 43.9062 975.277 43.3164 975.121 42.7617C974.973 42.1992 974.746 41.7031 974.441 41.2734C974.145 40.8359 973.77 40.4922 973.316 40.2422C972.871 39.9922 972.348 39.8672 971.746 39.8672C971.152 39.8672 970.629 39.9922 970.176 40.2422C969.73 40.4922 969.355 40.8359 969.051 41.2734C968.754 41.7031 968.531 42.1992 968.383 42.7617C968.234 43.3164 968.16 43.9062 968.16 44.5312ZM988.445 38.3203V40.1133H982.586V51H980.418V38.3203H988.445ZM997.809 48.832V42.3047C997.809 41.8047 997.707 41.3711 997.504 41.0039C997.309 40.6289 997.012 40.3398 996.613 40.1367C996.215 39.9336 995.723 39.832 995.137 39.832C994.59 39.832 994.109 39.9258 993.695 40.1133C993.289 40.3008 992.969 40.5469 992.734 40.8516C992.508 41.1562 992.395 41.4844 992.395 41.8359H990.227C990.227 41.3828 990.344 40.9336 990.578 40.4883C990.812 40.043 991.148 39.6406 991.586 39.2812C992.031 38.9141 992.562 38.625 993.18 38.4141C993.805 38.1953 994.5 38.0859 995.266 38.0859C996.188 38.0859 997 38.2422 997.703 38.5547C998.414 38.8672 998.969 39.3398 999.367 39.9727C999.773 40.5977 999.977 41.3828 999.977 42.3281V48.2344C999.977 48.6562 1000.01 49.1055 1000.08 49.582C1000.16 50.0586 1000.27 50.4688 1000.42 50.8125V51H998.16C998.051 50.75 997.965 50.418 997.902 50.0039C997.84 49.582 997.809 49.1914 997.809 48.832ZM998.184 43.3125L998.207 44.8359H996.016C995.398 44.8359 994.848 44.8867 994.363 44.9883C993.879 45.082 993.473 45.2266 993.145 45.4219C992.816 45.6172 992.566 45.8633 992.395 46.1602C992.223 46.4492 992.137 46.7891 992.137 47.1797C992.137 47.5781 992.227 47.9414 992.406 48.2695C992.586 48.5977 992.855 48.8594 993.215 49.0547C993.582 49.2422 994.031 49.3359 994.562 49.3359C995.227 49.3359 995.812 49.1953 996.32 48.9141C996.828 48.6328 997.23 48.2891 997.527 47.8828C997.832 47.4766 997.996 47.082 998.02 46.6992L998.945 47.7422C998.891 48.0703 998.742 48.4336 998.5 48.832C998.258 49.2305 997.934 49.6133 997.527 49.9805C997.129 50.3398 996.652 50.6406 996.098 50.8828C995.551 51.1172 994.934 51.2344 994.246 51.2344C993.387 51.2344 992.633 51.0664 991.984 50.7305C991.344 50.3945 990.844 49.9453 990.484 49.3828C990.133 48.8125 989.957 48.1758 989.957 47.4727C989.957 46.793 990.09 46.1953 990.355 45.6797C990.621 45.1562 991.004 44.7227 991.504 44.3789C992.004 44.0273 992.605 43.7617 993.309 43.582C994.012 43.4023 994.797 43.3125 995.664 43.3125H998.184Z" fill="black"/>
<path d="M858.464 94.3675C858.62 93.7044 858.698 93.3729 858.824 93.2982C858.933 93.2339 859.067 93.2339 859.176 93.2982C859.302 93.3729 859.38 93.7044 859.536 94.3675L860.3 97.603C860.584 98.8064 860.726 99.408 861.034 99.896C861.307 100.327 861.673 100.693 862.104 100.966C862.592 101.274 863.194 101.416 864.397 101.7L867.632 102.464C868.296 102.62 868.627 102.698 868.702 102.824C868.766 102.933 868.766 103.067 868.702 103.176C868.627 103.302 868.296 103.38 867.632 103.536L864.397 104.3C863.194 104.584 862.592 104.726 862.104 105.034C861.673 105.307 861.307 105.673 861.034 106.104C860.726 106.592 860.584 107.194 860.3 108.397L859.536 111.632C859.38 112.296 859.302 112.627 859.176 112.702C859.067 112.766 858.933 112.766 858.824 112.702C858.698 112.627 858.62 112.296 858.464 111.632L857.7 108.397C857.416 107.194 857.274 106.592 856.966 106.104C856.693 105.673 856.327 105.307 855.896 105.034C855.408 104.726 854.806 104.584 853.603 104.3L850.368 103.536C849.704 103.38 849.373 103.302 849.298 103.176C849.234 103.067 849.234 102.933 849.298 102.824C849.373 102.698 849.704 102.62 850.368 102.464L853.603 101.7C854.806 101.416 855.408 101.274 855.896 100.966C856.327 100.693 856.693 100.327 856.966 99.896C857.274 99.408 857.416 98.8064 857.7 97.603L858.464 94.3675Z" fill="black"/>
<path d="M888.297 95.4492L882.648 111H880.34L886.844 93.9375H888.332L888.297 95.4492ZM893.031 111L887.371 95.4492L887.336 93.9375H888.824L895.352 111H893.031ZM892.738 104.684V106.535H883.152V104.684H892.738ZM897.496 98.3203H899.664V109.219H904.305V98.3203H906.484V109.219H911.113V98.3203H913.281V111H897.496V98.3203ZM921.906 98.3203V111H919.727V98.3203H921.906ZM926.16 98.3203V100.078H915.555V98.3203H926.16ZM935.582 108.832V102.305C935.582 101.805 935.48 101.371 935.277 101.004C935.082 100.629 934.785 100.34 934.387 100.137C933.988 99.9336 933.496 99.832 932.91 99.832C932.363 99.832 931.883 99.9258 931.469 100.113C931.062 100.301 930.742 100.547 930.508 100.852C930.281 101.156 930.168 101.484 930.168 101.836H928C928 101.383 928.117 100.934 928.352 100.488C928.586 100.043 928.922 99.6406 929.359 99.2812C929.805 98.9141 930.336 98.625 930.953 98.4141C931.578 98.1953 932.273 98.0859 933.039 98.0859C933.961 98.0859 934.773 98.2422 935.477 98.5547C936.188 98.8672 936.742 99.3398 937.141 99.9727C937.547 100.598 937.75 101.383 937.75 102.328V108.234C937.75 108.656 937.785 109.105 937.855 109.582C937.934 110.059 938.047 110.469 938.195 110.812V111H935.934C935.824 110.75 935.738 110.418 935.676 110.004C935.613 109.582 935.582 109.191 935.582 108.832ZM935.957 103.312L935.98 104.836H933.789C933.172 104.836 932.621 104.887 932.137 104.988C931.652 105.082 931.246 105.227 930.918 105.422C930.59 105.617 930.34 105.863 930.168 106.16C929.996 106.449 929.91 106.789 929.91 107.18C929.91 107.578 930 107.941 930.18 108.27C930.359 108.598 930.629 108.859 930.988 109.055C931.355 109.242 931.805 109.336 932.336 109.336C933 109.336 933.586 109.195 934.094 108.914C934.602 108.633 935.004 108.289 935.301 107.883C935.605 107.477 935.77 107.082 935.793 106.699L936.719 107.742C936.664 108.07 936.516 108.434 936.273 108.832C936.031 109.23 935.707 109.613 935.301 109.98C934.902 110.34 934.426 110.641 933.871 110.883C933.324 111.117 932.707 111.234 932.02 111.234C931.16 111.234 930.406 111.066 929.758 110.73C929.117 110.395 928.617 109.945 928.258 109.383C927.906 108.812 927.73 108.176 927.73 107.473C927.73 106.793 927.863 106.195 928.129 105.68C928.395 105.156 928.777 104.723 929.277 104.379C929.777 104.027 930.379 103.762 931.082 103.582C931.785 103.402 932.57 103.312 933.438 103.312H935.957ZM949.762 103.816V105.574H943.059V103.816H949.762ZM943.516 98.3203V111H941.348V98.3203H943.516ZM951.52 98.3203V111H949.34V98.3203H951.52ZM963.203 98.3203V100.113H957.344V111H955.176V98.3203H963.203ZM972.566 108.832V102.305C972.566 101.805 972.465 101.371 972.262 101.004C972.066 100.629 971.77 100.34 971.371 100.137C970.973 99.9336 970.48 99.832 969.895 99.832C969.348 99.832 968.867 99.9258 968.453 100.113C968.047 100.301 967.727 100.547 967.492 100.852C967.266 101.156 967.152 101.484 967.152 101.836H964.984C964.984 101.383 965.102 100.934 965.336 100.488C965.57 100.043 965.906 99.6406 966.344 99.2812C966.789 98.9141 967.32 98.625 967.938 98.4141C968.562 98.1953 969.258 98.0859 970.023 98.0859C970.945 98.0859 971.758 98.2422 972.461 98.5547C973.172 98.8672 973.727 99.3398 974.125 99.9727C974.531 100.598 974.734 101.383 974.734 102.328V108.234C974.734 108.656 974.77 109.105 974.84 109.582C974.918 110.059 975.031 110.469 975.18 110.812V111H972.918C972.809 110.75 972.723 110.418 972.66 110.004C972.598 109.582 972.566 109.191 972.566 108.832ZM972.941 103.312L972.965 104.836H970.773C970.156 104.836 969.605 104.887 969.121 104.988C968.637 105.082 968.23 105.227 967.902 105.422C967.574 105.617 967.324 105.863 967.152 106.16C966.98 106.449 966.895 106.789 966.895 107.18C966.895 107.578 966.984 107.941 967.164 108.27C967.344 108.598 967.613 108.859 967.973 109.055C968.34 109.242 968.789 109.336 969.32 109.336C969.984 109.336 970.57 109.195 971.078 108.914C971.586 108.633 971.988 108.289 972.285 107.883C972.59 107.477 972.754 107.082 972.777 106.699L973.703 107.742C973.648 108.07 973.5 108.434 973.258 108.832C973.016 109.23 972.691 109.613 972.285 109.98C971.887 110.34 971.41 110.641 970.855 110.883C970.309 111.117 969.691 111.234 969.004 111.234C968.145 111.234 967.391 111.066 966.742 110.73C966.102 110.395 965.602 109.945 965.242 109.383C964.891 108.812 964.715 108.176 964.715 107.473C964.715 106.793 964.848 106.195 965.113 105.68C965.379 105.156 965.762 104.723 966.262 104.379C966.762 104.027 967.363 103.762 968.066 103.582C968.77 103.402 969.555 103.312 970.422 103.312H972.941ZM982.656 102.855V104.637H976.938V102.855H982.656ZM987.121 107.566L992.969 98.3203H995.148V111H992.969V101.754L987.121 111H984.965V98.3203H987.121V107.566ZM991.785 93.7266H993.543C993.543 94.3359 993.402 94.8789 993.121 95.3555C992.84 95.8242 992.438 96.1914 991.914 96.457C991.391 96.7227 990.77 96.8555 990.051 96.8555C988.965 96.8555 988.105 96.5664 987.473 95.9883C986.848 95.4023 986.535 94.6484 986.535 93.7266H988.293C988.293 94.1875 988.426 94.5938 988.691 94.9453C988.957 95.2969 989.41 95.4727 990.051 95.4727C990.676 95.4727 991.121 95.2969 991.387 94.9453C991.652 94.5938 991.785 94.1875 991.785 93.7266ZM998.055 104.801V104.531C998.055 103.617 998.188 102.77 998.453 101.988C998.719 101.199 999.102 100.516 999.602 99.9375C1000.1 99.3516 1000.71 98.8984 1001.42 98.5781C1002.13 98.25 1002.93 98.0859 1003.81 98.0859C1004.7 98.0859 1005.5 98.25 1006.21 98.5781C1006.93 98.8984 1007.54 99.3516 1008.04 99.9375C1008.55 100.516 1008.93 101.199 1009.2 101.988C1009.46 102.77 1009.6 103.617 1009.6 104.531V104.801C1009.6 105.715 1009.46 106.562 1009.2 107.344C1008.93 108.125 1008.55 108.809 1008.04 109.395C1007.54 109.973 1006.93 110.426 1006.22 110.754C1005.52 111.074 1004.72 111.234 1003.83 111.234C1002.94 111.234 1002.14 111.074 1001.43 110.754C1000.72 110.426 1000.11 109.973 999.602 109.395C999.102 108.809 998.719 108.125 998.453 107.344C998.188 106.562 998.055 105.715 998.055 104.801ZM1000.22 104.531V104.801C1000.22 105.434 1000.3 106.031 1000.45 106.594C1000.59 107.148 1000.82 107.641 1001.11 108.07C1001.42 108.5 1001.8 108.84 1002.25 109.09C1002.7 109.332 1003.23 109.453 1003.83 109.453C1004.43 109.453 1004.95 109.332 1005.39 109.09C1005.84 108.84 1006.22 108.5 1006.52 108.07C1006.81 107.641 1007.04 107.148 1007.18 106.594C1007.34 106.031 1007.42 105.434 1007.42 104.801V104.531C1007.42 103.906 1007.34 103.316 1007.18 102.762C1007.04 102.199 1006.81 101.703 1006.5 101.273C1006.21 100.836 1005.83 100.492 1005.38 100.242C1004.93 99.9922 1004.41 99.8672 1003.81 99.8672C1003.21 99.8672 1002.69 99.9922 1002.24 100.242C1001.79 100.492 1001.42 100.836 1001.11 101.273C1000.82 101.703 1000.59 102.199 1000.45 102.762C1000.3 103.316 1000.22 103.906 1000.22 104.531ZM1020.51 98.3203V100.113H1014.65V111H1012.48V98.3203H1020.51ZM1029.87 108.832V102.305C1029.87 101.805 1029.77 101.371 1029.57 101.004C1029.37 100.629 1029.07 100.34 1028.68 100.137C1028.28 99.9336 1027.79 99.832 1027.2 99.832C1026.65 99.832 1026.17 99.9258 1025.76 100.113C1025.35 100.301 1025.03 100.547 1024.8 100.852C1024.57 101.156 1024.46 101.484 1024.46 101.836H1022.29C1022.29 101.383 1022.41 100.934 1022.64 100.488C1022.88 100.043 1023.21 99.6406 1023.65 99.2812C1024.09 98.9141 1024.62 98.625 1025.24 98.4141C1025.87 98.1953 1026.56 98.0859 1027.33 98.0859C1028.25 98.0859 1029.06 98.2422 1029.77 98.5547C1030.48 98.8672 1031.03 99.3398 1031.43 99.9727C1031.84 100.598 1032.04 101.383 1032.04 102.328V108.234C1032.04 108.656 1032.07 109.105 1032.14 109.582C1032.22 110.059 1032.34 110.469 1032.48 110.812V111H1030.22C1030.11 110.75 1030.03 110.418 1029.96 110.004C1029.9 109.582 1029.87 109.191 1029.87 108.832ZM1030.25 103.312L1030.27 104.836H1028.08C1027.46 104.836 1026.91 104.887 1026.43 104.988C1025.94 105.082 1025.54 105.227 1025.21 105.422C1024.88 105.617 1024.63 105.863 1024.46 106.16C1024.29 106.449 1024.2 106.789 1024.2 107.18C1024.2 107.578 1024.29 107.941 1024.47 108.27C1024.65 108.598 1024.92 108.859 1025.28 109.055C1025.64 109.242 1026.09 109.336 1026.62 109.336C1027.29 109.336 1027.88 109.195 1028.38 108.914C1028.89 108.633 1029.29 108.289 1029.59 107.883C1029.89 107.477 1030.06 107.082 1030.08 106.699L1031.01 107.742C1030.95 108.07 1030.8 108.434 1030.56 108.832C1030.32 109.23 1030 109.613 1029.59 109.98C1029.19 110.34 1028.71 110.641 1028.16 110.883C1027.61 111.117 1027 111.234 1026.31 111.234C1025.45 111.234 1024.7 111.066 1024.05 110.73C1023.41 110.395 1022.91 109.945 1022.55 109.383C1022.2 108.812 1022.02 108.176 1022.02 107.473C1022.02 106.793 1022.15 106.195 1022.42 105.68C1022.68 105.156 1023.07 104.723 1023.57 104.379C1024.07 104.027 1024.67 103.762 1025.37 103.582C1026.07 103.402 1026.86 103.312 1027.73 103.312H1030.25Z" fill="black"/>
</svg>
